{
    "asset" : {
        "generator" : "Khronos glTF Blender I/O v1.4.40",
        "version" : "2.0"
    },
    "scene" : 0,
    "scenes" : [
        {
            "name" : "Scene",
            "nodes" : [
                25
            ]
        }
    ],
    "nodes" : [
        {
            "name" : "LFoot",
            "rotation" : [
                0,
                -0.5692802667617798,
                0,
                0.8221435546875
            ],
            "translation" : [
                3.1948089599609375e-05,
                -5.4000020027160645,
                -6.26698010819382e-07
            ]
        },
        {
            "children" : [
                0
            ],
            "name" : "LLeg",
            "rotation" : [
                0,
                5.896894300985722e-15,
                0,
                1
            ],
            "translation" : [
                3.2901763916015625e-05,
                -5.40001106262207,
                -4.547633970786169e-13
            ]
        },
        {
            "children" : [
                1
            ],
            "name" : "LThigh",
            "rotation" : [
                0,
                -2.4277140627665394e-13,
                0,
                1
            ],
            "translation" : [
                3.2867579460144043,
                -0.5603809356689453,
                2.582334622479282e-18
            ]
        },
        {
            "name" : "RFoot",
            "rotation" : [
                0,
                -0.569280207157135,
                0,
                0.8221436738967896
            ],
            "translation" : [
                3.218650817871094e-05,
                -5.399997234344482,
                6.856248546682764e-07
            ]
        },
        {
            "children" : [
                3
            ],
            "name" : "RLeg",
            "rotation" : [
                0,
                1.7632379931131759e-15,
                0,
                1
            ],
            "translation" : [
                3.2901763916015625e-05,
                -5.400003910064697,
                5.115795147503377e-07
            ]
        },
        {
            "children" : [
                4
            ],
            "name" : "RThigh",
            "rotation" : [
                0,
                -2.488410410887709e-13,
                0,
                1
            ],
            "translation" : [
                -3.2867419719696045,
                -0.5604286193847656,
                -2.273762504233917e-13
            ]
        },
        {
            "children" : [
                2,
                5
            ],
            "name" : "Hips",
            "rotation" : [
                0,
                7.858624756669094e-19,
                0,
                1
            ],
            "translation" : [
                -1.2857162801083177e-06,
                -1.5395002365112305,
                1.0106325826448896e-24
            ]
        },
        {
            "name" : "LHand",
            "translation" : [
                5.600029945373535,
                9.5367431640625e-06,
                -9.094947017729282e-13
            ]
        },
        {
            "children" : [
                7
            ],
            "name" : "LForeArm",
            "rotation" : [
                0,
                -4.999999987376214e-07,
                0,
                1
            ],
            "translation" : [
                5.600001335144043,
                2.47955322265625e-05,
                2.273847072003371e-13
            ]
        },
        {
            "children" : [
                8
            ],
            "name" : "LArmA",
            "rotation" : [
                0,
                1.1459001268097628e-18,
                0,
                1
            ],
            "translation" : [
                3.7534873485565186,
                2.8242969512939453,
                -2.2465299025498098e-06
            ]
        },
        {
            "name" : "loc_eye",
            "rotation" : [
                0,
                5.8303660039677645e-19,
                0,
                1
            ],
            "translation" : [
                -3.131258563371375e-05,
                2.85980224609375,
                5.378231048583984
            ]
        },
        {
            "name" : "loc_head",
            "rotation" : [
                0,
                5.827586677109586e-19,
                0,
                1
            ],
            "translation" : [
                -5.751468415837735e-05,
                10.93460464477539,
                6.703436418891829e-23
            ]
        },
        {
            "name" : "loc_mouth",
            "rotation" : [
                0,
                5.8303660039677645e-19,
                0,
                1
            ],
            "translation" : [
                -1.4964385627536103e-05,
                -1.3626995086669922,
                5.080689907073975
            ]
        },
        {
            "children" : [
                10,
                11,
                12
            ],
            "name" : "Head",
            "rotation" : [
                0,
                -1.2110546398179378e-13,
                0,
                1
            ],
            "translation" : [
                -8.072132914094254e-06,
                2.714801788330078,
                -1.9551497384293254e-18
            ]
        },
        {
            "children" : [
                13
            ],
            "name" : "Neck",
            "rotation" : [
                0,
                1.2110543687673947e-13,
                0,
                1
            ],
            "translation" : [
                -1.603085911483504e-05,
                5.335102081298828,
                1.6988031241513104e-23
            ]
        },
        {
            "name" : "RHand",
            "rotation" : [
                0,
                2.2168933355715126e-12,
                0,
                1
            ],
            "translation" : [
                -5.600044250488281,
                -3.814697265625e-05,
                1.120018077926943e-05
            ]
        },
        {
            "children" : [
                15
            ],
            "name" : "RForeArm",
            "translation" : [
                -5.600000858306885,
                -3.62396240234375e-05,
                1.1200003427802585e-05
            ]
        },
        {
            "children" : [
                16
            ],
            "name" : "RArmA",
            "rotation" : [
                0,
                -5.000022724743758e-07,
                0,
                1
            ],
            "translation" : [
                -3.7535240650177,
                2.8242740631103516,
                -2.2464998892246513e-06
            ]
        },
        {
            "children" : [
                9,
                14,
                17
            ],
            "name" : "Spine2",
            "rotation" : [
                0,
                -1.2237744997055378e-13,
                0,
                1
            ],
            "scale" : [
                1,
                0.9999999403953552,
                1
            ],
            "translation" : [
                -1.637743116589263e-05,
                5.450799942016602,
                -4.008438252683473e-18
            ]
        },
        {
            "children" : [
                18
            ],
            "name" : "Spine1",
            "rotation" : [
                0,
                1.223772873402279e-13,
                0,
                1
            ],
            "translation" : [
                -9.95530717773363e-06,
                3.3119001388549805,
                7.82533451900234e-24
            ]
        },
        {
            "children" : [
                6,
                19
            ],
            "name" : "Waist",
            "rotation" : [
                0,
                2.3686812195911414e-14,
                0,
                1
            ],
            "translation" : [
                8.44361784402281e-06,
                14.518799781799316,
                -4.000114127384199e-19
            ]
        },
        {
            "children" : [
                20
            ],
            "name" : "Origin",
            "rotation" : [
                0,
                -2.368720521919894e-14,
                0,
                1
            ]
        },
        {
            "children" : [
                21
            ],
            "name" : "rstr0184_00_fi",
            "rotation" : [
                -0.7071068286895752,
                0,
                0,
                0.7071068286895752
            ]
        },
        {
            "mesh" : 0,
            "name" : "mesh_0_body",
            "skin" : 0
        },
        {
            "mesh" : 1,
            "name" : "mesh_1_head",
            "skin" : 0
        },
        {
            "children" : [
                23,
                24,
                22
            ],
            "name" : "Armature",
            "rotation" : [
                0.3251955807209015,
                0,
                0,
                0.9456468820571899
            ],
            "scale" : [
                0.6396892666816711,
                0.6396892666816711,
                0.6396892666816711
            ]
        }
    ],
    "materials" : [
        {
            "doubleSided" : true,
            "name" : "rstr0184_00_fi_bodyMat",
            "pbrMetallicRoughness" : {
                "baseColorTexture" : {
                    "index" : 0,
                    "texCoord" : 0
                },
                "metallicFactor" : 0,
                "roughnessFactor" : 0.5
            }
        },
        {
            "doubleSided" : true,
            "name" : "rstr0184_00_fi_headMat",
            "pbrMetallicRoughness" : {
                "baseColorTexture" : {
                    "index" : 1,
                    "texCoord" : 0
                },
                "metallicFactor" : 0,
                "roughnessFactor" : 0.5
            }
        }
    ],
    "meshes" : [
        {
            "name" : "mesh_0_body",
            "primitives" : [
                {
                    "attributes" : {
                        "POSITION" : 0,
                        "NORMAL" : 1,
                        "TEXCOORD_0" : 2,
                        "JOINTS_0" : 3,
                        "WEIGHTS_0" : 4
                    },
                    "indices" : 5,
                    "material" : 0
                }
            ]
        },
        {
            "name" : "mesh_1_head",
            "primitives" : [
                {
                    "attributes" : {
                        "POSITION" : 7,
                        "NORMAL" : 8,
                        "TEXCOORD_0" : 9,
                        "JOINTS_0" : 10,
                        "WEIGHTS_0" : 11
                    },
                    "indices" : 12,
                    "material" : 1
                }
            ]
        }
    ],
    "textures" : [
        {
            "sampler" : 0,
            "source" : 0
        },
        {
            "sampler" : 0,
            "source" : 1
        }
    ],
    "images" : [
        {
            "bufferView" : 6,
            "mimeType" : "image/png",
            "name" : "rstr0184_00_fi_body"
        },
        {
            "bufferView" : 14,
            "mimeType" : "image/png",
            "name" : "rstr0184_00_fi_head"
        }
    ],
    "skins" : [
        {
            "inverseBindMatrices" : 6,
            "joints" : [
                22,
                21,
                20,
                6,
                2,
                1,
                0,
                5,
                4,
                3,
                19,
                18,
                9,
                8,
                7,
                14,
                13,
                10,
                11,
                12,
                17,
                16,
                15
            ],
            "name" : "Armature"
        }
    ],
    "accessors" : [
        {
            "bufferView" : 0,
            "componentType" : 5126,
            "count" : 530,
            "max" : [
                7.880046844482422,
                12.179671287536621,
                1.2942768335342407
            ],
            "min" : [
                -7.410327434539795,
                -0.7418187260627747,
                -15.56998348236084
            ],
            "type" : "VEC3"
        },
        {
            "bufferView" : 1,
            "componentType" : 5126,
            "count" : 530,
            "type" : "VEC3"
        },
        {
            "bufferView" : 2,
            "componentType" : 5126,
            "count" : 530,
            "type" : "VEC2"
        },
        {
            "bufferView" : 3,
            "componentType" : 5121,
            "count" : 530,
            "type" : "VEC4"
        },
        {
            "bufferView" : 4,
            "componentType" : 5126,
            "count" : 530,
            "type" : "VEC4"
        },
        {
            "bufferView" : 5,
            "componentType" : 5123,
            "count" : 2028,
            "type" : "SCALAR"
        },
        {
            "bufferView" : 7,
            "componentType" : 5126,
            "count" : 23,
            "type" : "MAT4"
        },
        {
            "bufferView" : 8,
            "componentType" : 5126,
            "count" : 197,
            "max" : [
                3.776872396469116,
                18.216856002807617,
                -12.869261741638184
            ],
            "min" : [
                -3.776872396469116,
                9.860221862792969,
                -22.228649139404297
            ],
            "type" : "VEC3"
        },
        {
            "bufferView" : 9,
            "componentType" : 5126,
            "count" : 197,
            "type" : "VEC3"
        },
        {
            "bufferView" : 10,
            "componentType" : 5126,
            "count" : 197,
            "type" : "VEC2"
        },
        {
            "bufferView" : 11,
            "componentType" : 5121,
            "count" : 197,
            "type" : "VEC4"
        },
        {
            "bufferView" : 12,
            "componentType" : 5126,
            "count" : 197,
            "type" : "VEC4"
        },
        {
            "bufferView" : 13,
            "componentType" : 5123,
            "count" : 900,
            "type" : "SCALAR"
        }
    ],
    "bufferViews" : [
        {
            "buffer" : 0,
            "byteLength" : 6360,
            "byteOffset" : 0
        },
        {
            "buffer" : 0,
            "byteLength" : 6360,
            "byteOffset" : 6360
        },
        {
            "buffer" : 0,
            "byteLength" : 4240,
            "byteOffset" : 12720
        },
        {
            "buffer" : 0,
            "byteLength" : 2120,
            "byteOffset" : 16960
        },
        {
            "buffer" : 0,
            "byteLength" : 8480,
            "byteOffset" : 19080
        },
        {
            "buffer" : 0,
            "byteLength" : 4056,
            "byteOffset" : 27560
        },
        {
            "buffer" : 0,
            "byteLength" : 8717,
            "byteOffset" : 31616
        },
        {
            "buffer" : 0,
            "byteLength" : 1472,
            "byteOffset" : 40336
        },
        {
            "buffer" : 0,
            "byteLength" : 2364,
            "byteOffset" : 41808
        },
        {
            "buffer" : 0,
            "byteLength" : 2364,
            "byteOffset" : 44172
        },
        {
            "buffer" : 0,
            "byteLength" : 1576,
            "byteOffset" : 46536
        },
        {
            "buffer" : 0,
            "byteLength" : 788,
            "byteOffset" : 48112
        },
        {
            "buffer" : 0,
            "byteLength" : 3152,
            "byteOffset" : 48900
        },
        {
            "buffer" : 0,
            "byteLength" : 1800,
            "byteOffset" : 52052
        },
        {
            "buffer" : 0,
            "byteLength" : 5648,
            "byteOffset" : 53852
        }
    ],
    "samplers" : [
        {
            "magFilter" : 9729,
            "minFilter" : 9986
        }
    ],
    "buffers" : [
        {
            "byteLength" : 59500,
            "uri" : "data:application/octet-stream;base64,"
        }
    ]
}
